<svg id="visual" viewBox="0 0 960 540" width="960" height="540" xmlns="http://www.w3.org/2000/svg" xmlns:xlink="http://www.w3.org/1999/xlink" version="1.1"><rect x="0" y="0" width="960" height="540" fill="#BBE1FA"></rect><path d="M0 397L96 378L192 360L288 326L384 335L480 378L576 372L672 354L768 300L864 393L960 396L960 541L864 541L768 541L672 541L576 541L480 541L384 541L288 541L192 541L96 541L0 541Z" fill="#3282b8"></path><path d="M0 412L96 378L192 335L288 328L384 370L480 325L576 409L672 387L768 334L864 323L960 329L960 541L864 541L768 541L672 541L576 541L480 541L384 541L288 541L192 541L96 541L0 541Z" fill="#2f7db2"></path><path d="M0 348L96 391L192 414L288 415L384 368L480 391L576 349L672 359L768 360L864 374L960 363L960 541L864 541L768 541L672 541L576 541L480 541L384 541L288 541L192 541L96 541L0 541Z" fill="#2c78ac"></path><path d="M0 425L96 366L192 403L288 395L384 361L480 399L576 430L672 411L768 428L864 432L960 428L960 541L864 541L768 541L672 541L576 541L480 541L384 541L288 541L192 541L96 541L0 541Z" fill="#2973a5"></path><path d="M0 391L96 417L192 381L288 385L384 382L480 444L576 390L672 446L768 423L864 416L960 432L960 541L864 541L768 541L672 541L576 541L480 541L384 541L288 541L192 541L96 541L0 541Z" fill="#266e9f"></path><path d="M0 421L96 394L192 423L288 405L384 404L480 412L576 391L672 425L768 389L864 423L960 416L960 541L864 541L768 541L672 541L576 541L480 541L384 541L288 541L192 541L96 541L0 541Z" fill="#236899"></path><path d="M0 425L96 412L192 431L288 413L384 473L480 413L576 428L672 468L768 464L864 472L960 422L960 541L864 541L768 541L672 541L576 541L480 541L384 541L288 541L192 541L96 541L0 541Z" fill="#1f6493"></path><path d="M0 432L96 437L192 466L288 470L384 456L480 480L576 457L672 456L768 476L864 432L960 463L960 541L864 541L768 541L672 541L576 541L480 541L384 541L288 541L192 541L96 541L0 541Z" fill="#1c5f8d"></path><path d="M0 475L96 460L192 486L288 454L384 493L480 448L576 464L672 478L768 468L864 464L960 450L960 541L864 541L768 541L672 541L576 541L480 541L384 541L288 541L192 541L96 541L0 541Z" fill="#195a87"></path><path d="M0 508L96 484L192 472L288 504L384 488L480 472L576 471L672 491L768 482L864 500L960 470L960 541L864 541L768 541L672 541L576 541L480 541L384 541L288 541L192 541L96 541L0 541Z" fill="#165581"></path><path d="M0 517L96 491L192 489L288 517L384 509L480 506L576 489L672 506L768 518L864 493L960 496L960 541L864 541L768 541L672 541L576 541L480 541L384 541L288 541L192 541L96 541L0 541Z" fill="#13517b"></path><path d="M0 504L96 508L192 511L288 521L384 513L480 518L576 529L672 513L768 522L864 508L960 508L960 541L864 541L768 541L672 541L576 541L480 541L384 541L288 541L192 541L96 541L0 541Z" fill="#0f4c75"></path></svg>